<svg xmlns="http://www.w3.org/2000/svg" viewBox="0 0 1600 900" role="img" font-family="Inter, Helvetica, Arial, sans-serif">
  <defs>
    <linearGradient id="acc" x1="0" y1="0" x2="1" y2="1">
      <stop offset="0" stop-color="#6366F1"/><stop offset="1" stop-color="#8B5CF6"/>
    </linearGradient>
    <pattern id="grid" width="40" height="40" patternUnits="userSpaceOnUse">
      <path d="M40 0H0V40" fill="none" stroke="#1F1F22" stroke-width="1"/>
    </pattern>
  </defs>
  <rect width="1600" height="900" fill="#101014"/>
  <rect width="1600" height="900" fill="url(#grid)" opacity=".55"/>
  <g>
    <rect x="140" y="230" width="440" height="440" rx="12" fill="#1B1B1F"/>
    <circle cx="360" cy="450" r="150" fill="#232329"/><circle cx="360" cy="450" r="96" fill="#2b2b33"/>
    <circle cx="320" cy="410" r="26" fill="#35353f"/><circle cx="400" cy="470" r="20" fill="#35353f"/>
  </g>
  <g fill="none" stroke="#6366F1" stroke-opacity=".55" stroke-width="1.5">
    <rect x="140" y="230" width="110" height="110"/>
    <rect x="250" y="230" width="110" height="110"/>
    <rect x="360" y="230" width="110" height="110"/>
    <rect x="470" y="230" width="110" height="110"/>
    <rect x="140" y="340" width="110" height="110"/>
    <rect x="250" y="340" width="110" height="110"/>
    <rect x="360" y="340" width="110" height="110"/>
    <rect x="470" y="340" width="110" height="110"/>
    <rect x="140" y="450" width="110" height="110"/>
    <rect x="250" y="450" width="110" height="110"/>
    <rect x="360" y="450" width="110" height="110"/>
    <rect x="470" y="450" width="110" height="110"/>
    <rect x="140" y="560" width="110" height="110"/>
    <rect x="250" y="560" width="110" height="110"/>
    <rect x="360" y="560" width="110" height="110"/>
    <rect x="470" y="560" width="110" height="110"/>
  </g>
  <rect x="360" y="340" width="110" height="110" fill="none" stroke="#8B5CF6" stroke-width="3"/>
  <text x="140" y="200" fill="#71717A" font-size="20" letter-spacing="3">16 × 16 PATCHES</text>
  <g stroke="#3F3F46" stroke-width="1.5">
    <path d="M580 450h80"/><path d="M470 395C540 395 560 430 660 450"/>
  </g>
  <path d="M666 450l-16-8v16z" fill="#3F3F46"/>
  <g fill="#18181C" stroke="#27272A" stroke-width="1.5">
    <rect x="680" y="280" width="60" height="340" rx="8"/><rect x="760" y="280" width="60" height="340" rx="8"/>
    <rect x="840" y="280" width="60" height="340" rx="8"/><rect x="920" y="280" width="60" height="340" rx="8"/>
  </g>
  <text x="830" y="248" fill="#71717A" font-size="20" text-anchor="middle" letter-spacing="3">TRANSFORMER BLOCKS</text>
  <g fill="#6366F1" opacity=".5">
    <rect x="692" y="320" width="36" height="14" rx="7"/><rect x="692" y="400" width="36" height="14" rx="7"/>
    <rect x="772" y="360" width="36" height="14" rx="7"/><rect x="772" y="480" width="36" height="14" rx="7"/>
    <rect x="852" y="330" width="36" height="14" rx="7"/><rect x="852" y="520" width="36" height="14" rx="7"/>
    <rect x="932" y="420" width="36" height="14" rx="7"/><rect x="932" y="300" width="36" height="14" rx="7"/>
  </g>
  <path d="M980 450h70" stroke="#3F3F46" stroke-width="2"/><path d="M1056 450l-16-8v16z" fill="#3F3F46"/>
  <rect x="1070" y="300" width="400" height="300" rx="12" fill="#141418" stroke="#27272A"/>
  <text x="1100" y="352" fill="#A1A1AA" font-size="21" font-weight="600">Top predictions</text>
  <g font-size="21">
    <text x="1100" y="410" fill="#F5F5F5">carbonara</text>
    <rect x="1100" y="424" width="340" height="10" rx="5" fill="#1F1F22"/><rect x="1100" y="424" width="300" height="10" rx="5" fill="url(#acc)"/>
    <text x="1100" y="480" fill="#A1A1AA">cacio e pepe</text>
    <rect x="1100" y="494" width="340" height="10" rx="5" fill="#1F1F22"/><rect x="1100" y="494" width="122" height="10" rx="5" fill="#6366F1" opacity=".55"/>
    <text x="1100" y="550" fill="#71717A">amatriciana</text>
    <rect x="1100" y="564" width="340" height="10" rx="5" fill="#1F1F22"/><rect x="1100" y="564" width="58" height="10" rx="5" fill="#6366F1" opacity=".35"/>
  </g>
  <text x="140" y="800" fill="#3F3F46" font-size="20" letter-spacing="3">FINE-TUNED ViT · PRECISION–RECALL EVALUATED</text>
</svg>
